<svg width="16" height="16" viewBox="0 0 16 16" fill="none" xmlns="http://www.w3.org/2000/svg">
<g clip-path="url(#clip0_2831_1929)">
<path d="M10.8837 0.349609H5.42915C4.48824 0.349609 3.72461 1.11324 3.72461 2.05415V13.6451C3.72461 14.586 4.48824 15.3496 5.42915 15.3496H10.8837C11.8246 15.3496 12.5882 14.586 12.5882 13.6451V2.05415C12.5882 1.11324 11.8246 0.349609 10.8837 0.349609ZM8.15644 14.6678C7.59052 14.6678 7.13371 14.211 7.13371 13.6451C7.13371 13.0792 7.59052 12.6223 8.15644 12.6223C8.72236 12.6223 9.17917 13.0792 9.17917 13.6451C9.17917 14.211 8.72233 14.6678 8.15644 14.6678ZM11.2246 11.9405H5.08826V2.39507H11.2246V11.9405Z" fill="#664EF9"/>
</g>
<defs>
<clipPath id="clip0_2831_1929">
<rect width="15" height="15" fill="white" transform="translate(0.65625 0.349609)"/>
</clipPath>
</defs>
</svg>
