<svg width="35" height="35" viewBox="0 0 35 35" fill="none" xmlns="http://www.w3.org/2000/svg">
<g clip-path="url(#clip0_312_536)">
<rect y="0.427734" width="34.1461" height="34.1461" rx="17.073" fill="#664EF9" fill-opacity="0.1"/>
<g clip-path="url(#clip1_312_536)">
<path d="M22.7035 18.2305C22.4275 17.8819 22.5064 17.7268 22.7035 17.4152C22.707 17.4117 24.9856 14.2631 25.2203 13.1953L25.2217 13.1946C25.3384 12.8055 25.2217 12.5195 24.6576 12.5195H22.791C22.3158 12.5195 22.0967 12.765 21.9793 13.0395C21.9793 13.0395 21.0289 15.3145 19.6844 16.7892C19.2504 17.2153 19.0498 17.3519 18.813 17.3519C18.6963 17.3519 18.5149 17.2153 18.5149 16.8262V13.1946C18.5149 12.728 18.3819 12.5195 17.9885 12.5195H15.0533C14.7553 12.5195 14.5781 12.7372 14.5781 12.94C14.5781 13.3824 15.2504 13.4842 15.3201 14.7291V17.4302C15.3201 18.022 15.2127 18.1309 14.9744 18.1309C14.3398 18.1309 12.7997 15.8466 11.887 13.2323C11.7027 12.7251 11.5228 12.5202 11.044 12.5202H9.17665C8.64383 12.5202 8.53641 12.7657 8.53641 13.0403C8.53641 13.5254 9.17096 15.9377 11.4872 19.1247C13.0309 21.3 15.2048 22.4788 17.1825 22.4788C18.3712 22.4788 18.5163 22.217 18.5163 21.7667C18.5163 19.6881 18.4089 19.4917 19.0043 19.4917C19.2803 19.4917 19.7555 19.6283 20.8653 20.6776C22.1337 21.9218 22.3421 22.4788 23.052 22.4788H24.9187C25.4508 22.4788 25.7204 22.217 25.5653 21.7006C25.2104 20.6143 22.8116 18.3798 22.7035 18.2305Z" fill="#664EF9"/>
</g>
</g>
<defs>
<clipPath id="clip0_312_536">
<rect width="34.1461" height="34.9997" fill="white"/>
</clipPath>
<clipPath id="clip1_312_536">
<rect width="17.073" height="17.073" fill="white" transform="translate(8.53641 8.96289)"/>
</clipPath>
</defs>
</svg>
